<?xml version="1.0" encoding="UTF-8"?>
<!DOCTYPE svg PUBLIC "-//W3C//DTD SVG 1.1//EN" "http://www.w3.org/Graphics/SVG/1.1/DTD/svg11.dtd">
<!-- Creator: CorelDRAW 2021 (64-Bit) -->
<svg xmlns="http://www.w3.org/2000/svg" xml:space="preserve" width="39.2032mm" height="39.2028mm" version="1.1" style="shape-rendering:geometricPrecision; text-rendering:geometricPrecision; image-rendering:optimizeQuality; fill-rule:evenodd; clip-rule:evenodd"
viewBox="0 0 3920.32 3920.28"
 xmlns:xlink="http://www.w3.org/1999/xlink"
 xmlns:xodm="http://www.corel.com/coreldraw/odm/2003">
 <defs>
  <style type="text/css">
   <![CDATA[
    .fil0 {fill:gray}
   ]]>
  </style>
 </defs>
 <g id="Capa_x0020_1">
  <metadata id="CorelCorpID_0Corel-Layer"/>
  <g id="_2625535562480">
   <path class="fil0" d="M3430.42 1632.92c0,-206.72 -63.99,-408.08 -152.56,-561.86 -252.51,-438.35 -742.46,-660.67 -1245.08,-550.04 -166.21,36.61 -347.13,127.01 -477.31,237.11 -319.3,270.1 -481.86,715.4 -378.7,1128.03 61.19,244.67 185.47,458.05 378.7,621.5 62.53,52.9 188.84,134.81 263.68,164.95 77.64,31.28 129.81,49.57 214.93,70.86 450.37,112.62 917.93,-83.49 1189.5,-460.12 33.76,-46.85 82.48,-130.22 103.48,-182.26 60.05,-148.99 103.36,-298.38 103.36,-468.21l0 0.04zm489.9 -71.42c0,415.55 -60.17,624.47 -254.46,949.87 -157.93,264.41 -405.84,461.06 -677.69,598.1 -453.34,228.5 -1072.73,207.9 -1509.17,-55.82 -31.85,-19.26 -58.42,-36.48 -89.79,-53.06 -79.67,53.35 -737.13,753.83 -855.53,848.86 -127.66,102.47 -320.97,93.24 -438.51,-24.34 -115.55,-115.55 -126.76,-303.54 -28.77,-432.74 73.34,-96.66 802.42,-785.28 853.29,-861.3 -195.67,-369.81 -265.35,-478.08 -265.35,-969.57 0,-218.38 79.55,-477.07 153.05,-622.6 20.84,-41.28 40.34,-87.15 65.41,-128.47 279.69,-460.82 793.24,-810.43 1343.03,-810.43 297.08,0 515.83,26.98 765.49,153.05 41.28,20.84 87.15,40.34 128.47,65.41 42.9,26.04 78.98,50.83 116.52,77.4 78.33,55.38 148.3,112.71 216.76,181.29 276.07,276.44 477.15,688.38 477.15,1084.39l0.1 -0.04z"/>
  </g>
 </g>
</svg>
