<?xml version="1.0" encoding="UTF-8"?>
<!DOCTYPE svg PUBLIC "-//W3C//DTD SVG 1.1//EN" "http://www.w3.org/Graphics/SVG/1.1/DTD/svg11.dtd">
<!-- Creator: CorelDRAW 2021 (64-Bit) -->
<svg xmlns="http://www.w3.org/2000/svg" xml:space="preserve" width="19.5525mm" height="16.3863mm" version="1.1" style="shape-rendering:geometricPrecision; text-rendering:geometricPrecision; image-rendering:optimizeQuality; fill-rule:evenodd; clip-rule:evenodd"
viewBox="0 0 159.97 134.06"
 xmlns:xlink="http://www.w3.org/1999/xlink"
 xmlns:xodm="http://www.corel.com/coreldraw/odm/2003">
 <defs>
  <style type="text/css">
   <![CDATA[
    .str0 {stroke:black;stroke-width:2.16;stroke-linecap:round;stroke-linejoin:round;stroke-miterlimit:22.9256}
    .fil0 {fill:black}
   ]]>
  </style>
 </defs>
 <g id="Capa_x0020_1">
  <metadata id="CorelCorpID_0Corel-Layer"/>
  <path class="fil0 str0" d="M96.74 58.02l0 58.28c0,9.17 -7.5,16.68 -16.68,16.68l-0 0c-9.17,0 -16.68,-7.5 -16.68,-16.68l0 -58.32 -33.85 33.85c-6.49,6.49 -17.1,6.49 -23.59,0l0 -0c-6.49,-6.49 -6.49,-17.1 0,-23.58l62.18 -62.18 0.03 -0.03 0.09 -0.1 0 0c6.49,-6.49 17.1,-6.49 23.58,0l62.18 62.18c6.49,6.49 6.49,17.1 0,23.58l0 0c-6.49,6.49 -17.1,6.49 -23.59,0l-33.7 -33.7z"/>
 </g>
</svg>
