<?xml version="1.0" encoding="UTF-8"?>
<!DOCTYPE svg PUBLIC "-//W3C//DTD SVG 1.1//EN" "http://www.w3.org/Graphics/SVG/1.1/DTD/svg11.dtd">
<!-- Creator: CorelDRAW 2021 (64-Bit) -->
<svg xmlns="http://www.w3.org/2000/svg" xml:space="preserve" width="30.8079mm" height="22.7149mm" version="1.1" style="shape-rendering:geometricPrecision; text-rendering:geometricPrecision; image-rendering:optimizeQuality; fill-rule:evenodd; clip-rule:evenodd"
viewBox="0 0 379.31 279.67"
 xmlns:xlink="http://www.w3.org/1999/xlink"
 xmlns:xodm="http://www.corel.com/coreldraw/odm/2003">
 <defs>
  <style type="text/css">
   <![CDATA[
    .str0 {stroke:black;stroke-width:3.26;stroke-linecap:round;stroke-linejoin:round;stroke-miterlimit:22.9256}
    .fil1 {fill:none}
    .fil0 {fill:black}
   ]]>
  </style>
 </defs>
 <g id="Capa_x0020_1">
  <metadata id="CorelCorpID_0Corel-Layer"/>
  <path class="fil0 str0" d="M214.75 87.31l0 87.71c0,13.8 -11.29,25.1 -25.1,25.1l-0 0c-13.8,0 -25.1,-11.29 -25.1,-25.1l0 -87.76 -50.94 50.94c-9.76,9.76 -25.73,9.76 -35.49,0l0 -0c-9.76,-9.76 -9.76,-25.73 0,-35.49l93.58 -93.58 0.04 -0.04 0.14 -0.15 0 0c9.76,-9.76 25.73,-9.76 35.49,0l93.58 93.58c9.76,9.76 9.76,25.73 0,35.49l0 0c-9.76,9.76 -25.73,9.76 -35.49,0l-50.71 -50.71z"/>
  <g>
   <path class="fil0" d="M26.73 100.37l0 0c13.8,0 25.1,11.29 25.1,25.09l0 102.38 275.66 0 0 -102.38c0,-13.8 11.29,-25.09 25.1,-25.09l0 0c13.8,0 25.1,11.29 25.1,25.09l0 127.48 0 0 0 0 -0.01 0.64 0 0 -0.02 0.64 0 0 -0.04 0.64 0 0 -0.06 0.63 0 0 -0.07 0.63 0 0 -0.09 0.62 0 0 -0.1 0.62 0 0 -0.12 0.61 0 0 -0.13 0.61 0 0 -0.15 0.6 0 0 -0.16 0.6 0 0 -0.18 0.59 -0.19 0.58 0 0 -0.2 0.58 0 0 -0.22 0.57 0 0 -0.23 0.57 -0.25 0.56 -0.26 0.55 0 0 -0.27 0.54 -0 0 -0.28 0.54 -0.3 0.53 -0 0 -0.31 0.52 -0.32 0.51 -0.33 0.5 -0.34 0.5 -0 0 -0.36 0.49 -0.37 0.48 -0.38 0.47 -0.39 0.46 -0.4 0.45 0 0 -0.41 0.44 -0.42 0.43 0 0 -0.43 0.42 -0.44 0.41 0 0 -0.45 0.4 -0 0c-0.3,0.26 -0.61,0.52 -0.93,0.77l-0 0 -0.48 0.37 -0 0 -0.49 0.36 -0 0 -0.49 0.35 -0 0 -0.5 0.33 -0.51 0.32 -0.52 0.31 -0 0c-0.35,0.2 -0.7,0.4 -1.07,0.58l-0 0 -0.54 0.27 -0 0 -0.55 0.26 -0 0 -0.56 0.25 -0 0 -0.56 0.23 -0 0 -0.57 0.22 -0 0 -0.58 0.2 -0 0 -0.58 0.19 -0 0 -0.59 0.18 -0 0c-0.2,0.06 -0.4,0.11 -0.59,0.16l-0 0 -0.6 0.15 -0 0 -0.61 0.13 -0 0 -0.61 0.12 -0 0 -0.62 0.1 -0 0 -0.62 0.09 -0 0 -0.63 0.07 -0 0 -0.63 0.06 -0 0 -0.63 0.04 -0 0 -0.64 0.02 -0 0 -0.64 0.01 -0 0 -0 0 -325.86 0 -0 0 -0 0 -0.64 -0.01 -0 0 -0.64 -0.02 -0 0 -0.63 -0.04 -0 0 -0.63 -0.06 -0 0 -0.63 -0.07 -0 0 -0.62 -0.09 -0 0 -0.62 -0.1 -0 0 -0.61 -0.12 -0 0 -0.61 -0.13 -0 0 -0.6 -0.15 -0 0 -0.59 -0.16 -0 0 -0.59 -0.18 -0 0 -0.58 -0.19 -0 0 -0.58 -0.2 -0 0 -0.57 -0.22 -0 0 -0.56 -0.23 -0 0 -0.56 -0.25 -0 0 -0.55 -0.26 -0 0 -0.54 -0.27 -0 0c-0.36,-0.19 -0.71,-0.38 -1.07,-0.58l-0 0 -0.52 -0.31 -0.51 -0.32 -0.5 -0.33 -0 0 -0.49 -0.35 -0 0 -0.49 -0.36 -0 0 -0.48 -0.37 -0 0c-0.32,-0.25 -0.63,-0.5 -0.93,-0.77l-0 0 -0.45 -0.4 0 -0 -0.44 -0.41 -0.43 -0.42 0 -0 -0.42 -0.43 -0.41 -0.44 0 -0 -0.4 -0.45 -0.39 -0.46 -0.38 -0.47 -0.37 -0.48 -0.36 -0.49 -0 0 -0.34 -0.5 -0.33 -0.5 -0.32 -0.51 -0.31 -0.52 -0 0 -0.3 -0.53 -0.28 -0.54 -0 0 -0.27 -0.54 0 -0 -0.26 -0.55c-0.08,-0.18 -0.17,-0.37 -0.25,-0.56l-0.23 -0.57 0 -0 -0.22 -0.57 0 -0 -0.2 -0.58 0 -0 -0.19 -0.58 -0.18 -0.59 0 -0 -0.16 -0.6 0 -0 -0.15 -0.6 0 -0 -0.13 -0.61 0 -0 -0.12 -0.61 0 -0 -0.1 -0.62 0 -0 -0.09 -0.62 0 -0 -0.07 -0.63 0 -0 -0.06 -0.63 0 -0 -0.04 -0.64 0 -0 -0.02 -0.64 0 -0 -0.01 -0.64 0 -0 0 -0 0 -127.48c0,-13.8 11.29,-25.09 25.1,-25.09zm-11.4 174.92c-0.36,-0.19 -0.71,-0.38 -1.07,-0.58l1.07 0.58zm-4.07 -2.61c-0.32,-0.25 -0.63,-0.5 -0.93,-0.77l0.93 0.77z"/>
   <path id="_1" class="fil1 str0" d="M26.73 100.37l0 0c13.8,0 25.1,11.29 25.1,25.09l0 102.38 275.66 0 0 -102.38c0,-13.8 11.29,-25.09 25.1,-25.09l0 0c13.8,0 25.1,11.29 25.1,25.09l0 127.48 0 0 0 0 -0.01 0.64 0 0 -0.02 0.64 0 0 -0.04 0.64 0 0 -0.06 0.63 0 0 -0.07 0.63 0 0 -0.09 0.62 0 0 -0.1 0.62 0 0 -0.12 0.61 0 0 -0.13 0.61 0 0 -0.15 0.6 0 0 -0.16 0.6 0 0 -0.18 0.59 -0.19 0.58 0 0 -0.2 0.58 0 0 -0.22 0.57 0 0 -0.23 0.57 -0.25 0.56 -0.26 0.55 0 0 -0.27 0.54 -0 0 -0.28 0.54 -0.3 0.53 -0 0 -0.31 0.52 -0.32 0.51 -0.33 0.5 -0.34 0.5 -0 0 -0.36 0.49 -0.37 0.48 -0.38 0.47 -0.39 0.46 -0.4 0.45 0 0 -0.41 0.44 -0.42 0.43 0 0 -0.43 0.42 -0.44 0.41 0 0 -0.45 0.4 -0 0c-0.3,0.26 -0.61,0.52 -0.93,0.77l-0 0 -0.48 0.37 -0 0 -0.49 0.36 -0 0 -0.49 0.35 -0 0 -0.5 0.33 -0.51 0.32 -0.52 0.31 -0 0c-0.35,0.2 -0.7,0.4 -1.07,0.58l-0 0 -0.54 0.27 -0 0 -0.55 0.26 -0 0 -0.56 0.25 -0 0 -0.56 0.23 -0 0 -0.57 0.22 -0 0 -0.58 0.2 -0 0 -0.58 0.19 -0 0 -0.59 0.18 -0 0c-0.2,0.06 -0.4,0.11 -0.59,0.16l-0 0 -0.6 0.15 -0 0 -0.61 0.13 -0 0 -0.61 0.12 -0 0 -0.62 0.1 -0 0 -0.62 0.09 -0 0 -0.63 0.07 -0 0 -0.63 0.06 -0 0 -0.63 0.04 -0 0 -0.64 0.02 -0 0 -0.64 0.01 -0 0 -0 0 -325.86 0 -0 0 -0 0 -0.64 -0.01 -0 0 -0.64 -0.02 -0 0 -0.63 -0.04 -0 0 -0.63 -0.06 -0 0 -0.63 -0.07 -0 0 -0.62 -0.09 -0 0 -0.62 -0.1 -0 0 -0.61 -0.12 -0 0 -0.61 -0.13 -0 0 -0.6 -0.15 -0 0 -0.59 -0.16 -0 0 -0.59 -0.18 -0 0 -0.58 -0.19 -0 0 -0.58 -0.2 -0 0 -0.57 -0.22 -0 0 -0.56 -0.23 -0 0 -0.56 -0.25 -0 0 -0.55 -0.26 -0 0 -0.54 -0.27 -0 0c-0.36,-0.19 -0.71,-0.38 -1.07,-0.58l-0 0 -0.52 -0.31 -0.51 -0.32 -0.5 -0.33 -0 0 -0.49 -0.35 -0 0 -0.49 -0.36 -0 0 -0.48 -0.37 -0 0c-0.32,-0.25 -0.63,-0.5 -0.93,-0.77l-0 0 -0.45 -0.4 0 -0 -0.44 -0.41 -0.43 -0.42 0 -0 -0.42 -0.43 -0.41 -0.44 0 -0 -0.4 -0.45 -0.39 -0.46 -0.38 -0.47 -0.37 -0.48 -0.36 -0.49 -0 0 -0.34 -0.5 -0.33 -0.5 -0.32 -0.51 -0.31 -0.52 -0 0 -0.3 -0.53 -0.28 -0.54 -0 0 -0.27 -0.54 0 -0 -0.26 -0.55c-0.08,-0.18 -0.17,-0.37 -0.25,-0.56l-0.23 -0.57 0 -0 -0.22 -0.57 0 -0 -0.2 -0.58 0 -0 -0.19 -0.58 -0.18 -0.59 0 -0 -0.16 -0.6 0 -0 -0.15 -0.6 0 -0 -0.13 -0.61 0 -0 -0.12 -0.61 0 -0 -0.1 -0.62 0 -0 -0.09 -0.62 0 -0 -0.07 -0.63 0 -0 -0.06 -0.63 0 -0 -0.04 -0.64 0 -0 -0.02 -0.64 0 -0 -0.01 -0.64 0 -0 0 -0 0 -127.48c0,-13.8 11.29,-25.09 25.1,-25.09zm-11.4 174.92c-0.36,-0.19 -0.71,-0.38 -1.07,-0.58m-3 -2.03c-0.32,-0.25 -0.63,-0.5 -0.93,-0.77"/>
  </g>
 </g>
</svg>
