<?xml version="1.0" encoding="UTF-8"?>
<!DOCTYPE svg PUBLIC "-//W3C//DTD SVG 1.1//EN" "http://www.w3.org/Graphics/SVG/1.1/DTD/svg11.dtd">
<!-- Creator: CorelDRAW 2021 (64-Bit) -->
<svg xmlns="http://www.w3.org/2000/svg" xml:space="preserve" width="36.492mm" height="27.252mm" version="1.1" style="shape-rendering:geometricPrecision; text-rendering:geometricPrecision; image-rendering:optimizeQuality; fill-rule:evenodd; clip-rule:evenodd"
viewBox="0 0 1990.57 1486.54"
 xmlns:xlink="http://www.w3.org/1999/xlink"
 xmlns:xodm="http://www.corel.com/coreldraw/odm/2003">
 <defs>
  <style type="text/css">
   <![CDATA[
    .fil0 {fill:gray}
   ]]>
  </style>
 </defs>
 <g id="Capa_x0020_1">
  <metadata id="CorelCorpID_0Corel-Layer"/>
  <path class="fil0" d="M363.37 1075.24l-363.37 363.31 600.25 -111.51c146.22,99.88 330.86,159.51 531.59,159.51 474.26,0 858.73,-332.78 858.73,-743.27 0,-410.5 -384.47,-743.27 -858.73,-743.27 -474.27,0 -858.73,332.78 -858.73,743.27 0,119.32 32.54,232.05 90.27,331.97zm773.69 -502.22c94.03,0 170.26,76.23 170.26,170.26 0,94.03 -76.23,170.26 -170.26,170.26 -94.03,0 -170.26,-76.23 -170.26,-170.26 0,-94.03 76.23,-170.26 170.26,-170.26zm-504.46 0c94.03,0 170.26,76.23 170.26,170.26 0,94.03 -76.23,170.26 -170.26,170.26 -94.03,0 -170.26,-76.23 -170.26,-170.26 0,-94.03 76.23,-170.26 170.26,-170.26zm1008.93 0c94.03,0 170.26,76.23 170.26,170.26 0,94.03 -76.23,170.26 -170.26,170.26 -94.03,0 -170.26,-76.23 -170.26,-170.26 0,-94.03 76.23,-170.26 170.26,-170.26z"/>
 </g>
</svg>
