<?xml version="1.0" encoding="UTF-8"?>
<!DOCTYPE svg PUBLIC "-//W3C//DTD SVG 1.1//EN" "http://www.w3.org/Graphics/SVG/1.1/DTD/svg11.dtd">
<!-- Creator: CorelDRAW 2021 (64-Bit) -->
<svg xmlns="http://www.w3.org/2000/svg" xml:space="preserve" width="34.8062mm" height="41.6724mm" version="1.1" style="shape-rendering:geometricPrecision; text-rendering:geometricPrecision; image-rendering:optimizeQuality; fill-rule:evenodd; clip-rule:evenodd"
viewBox="0 0 814.08 974.67"
 xmlns:xlink="http://www.w3.org/1999/xlink"
 xmlns:xodm="http://www.corel.com/coreldraw/odm/2003">
 <defs>
  <style type="text/css">
   <![CDATA[
    .fil0 {fill:gray}
   ]]>
  </style>
 </defs>
 <g id="Capa_x0020_1">
  <metadata id="CorelCorpID_0Corel-Layer"/>
  <g id="_2625536868912">
   <g id="_2808401530208">
    <path class="fil0" d="M365.15 83.77c-57.9,13.49 -78.09,18.63 -127.54,53.32 -19.21,13.49 -41.48,35.38 -55.77,54.65 -127.47,171.78 8.22,293.8 -122.08,460.43 -28.48,36.43 -53.92,37.78 -59.43,85.37 -3.99,34.48 28.7,75.32 69.74,75.32l673.89 0c40.05,0 72.68,-39.17 69.96,-73.74 -5.16,-65.45 -73.27,-61.76 -110.18,-181.11 -35.94,-116.21 31.09,-228 -71.54,-366.29 -2.88,-3.88 -4.44,-6.03 -7.68,-9.44 -20.35,-21.29 -20.12,-24.28 -46.98,-44.39 -7.41,-5.55 -13.22,-10.19 -21.42,-14.75 -49.25,-27.28 -53.12,-26.77 -107.21,-39.38 0,-40.03 6.01,-83.77 -45.69,-83.77 -16.76,0 -30.18,13.19 -34.86,26.06 -5.09,13.98 -3.22,39.34 -3.22,57.7l0 0z"/>
    <path class="fil0" d="M399.42 974.66c49.45,0 73.97,-9.75 108.79,-37.78 10.3,-8.3 23.45,-24.99 30.11,-36.52 15.5,-26.8 13.25,-35.35 19.09,-47.53l-300.77 0c7.99,16.65 11.23,52.18 48.16,83.2 21.57,18.13 55.95,38.64 94.62,38.64l0 -0.01z"/>
   </g>
  </g>
 </g>
</svg>
