<?xml version="1.0" encoding="UTF-8"?>
<!DOCTYPE svg PUBLIC "-//W3C//DTD SVG 1.1//EN" "http://www.w3.org/Graphics/SVG/1.1/DTD/svg11.dtd">
<!-- Creator: CorelDRAW 2021 (64-Bit) -->
<svg xmlns="http://www.w3.org/2000/svg" xml:space="preserve" width="59.8446mm" height="59.8461mm" version="1.1" style="shape-rendering:geometricPrecision; text-rendering:geometricPrecision; image-rendering:optimizeQuality; fill-rule:evenodd; clip-rule:evenodd"
viewBox="0 0 4004.71 4004.81"
 xmlns:xlink="http://www.w3.org/1999/xlink"
 xmlns:xodm="http://www.corel.com/coreldraw/odm/2003">
 <defs>
  <style type="text/css">
   <![CDATA[
    .fil0 {fill:#CD3539;fill-rule:nonzero}
   ]]>
  </style>
 </defs>
 <g id="Capa_x0020_1">
  <metadata id="CorelCorpID_0Corel-Layer"/>
  <path class="fil0" d="M2002.42 0c-1105.84,0 -2002.42,896.49 -2002.42,2002.39 0,819.92 493.05,1524.3 1198.58,1834 -5.63,-139.83 -1.01,-307.67 34.85,-459.8 38.5,-162.56 257.66,-1091.09 257.66,-1091.09 0,0 -63.98,-127.83 -63.98,-316.82 0,-296.73 172,-518.34 386.17,-518.34 182.14,0 270.14,136.8 270.14,300.6 0,183.1 -116.78,456.97 -176.84,710.63 -50.17,212.41 106.5,385.65 316.05,385.65 379.37,0 634.9,-487.27 634.9,-1064.6 0,-438.86 -295.59,-767.35 -833.19,-767.35 -607.4,0 -985.8,452.97 -985.8,958.93 0,174.45 51.43,297.49 132,392.74 37.05,43.76 42.2,61.37 28.78,111.61 -9.6,36.84 -31.67,125.54 -40.79,160.7 -13.33,50.7 -54.42,68.83 -100.26,50.11 -279.77,-114.21 -410.07,-420.58 -410.07,-764.99 0,-568.81 479.72,-1250.85 1431.09,-1250.85 764.5,0 1267.66,553.21 1267.66,1147.05 0,785.5 -436.69,1372.34 -1080.41,1372.34 -216.18,0 -419.54,-116.87 -489.19,-249.59 0,0 -116.26,461.35 -140.88,550.44 -42.44,154.39 -125.55,308.67 -201.53,428.94 180.1,53.17 370.33,82.12 567.5,82.12 1105.75,0 2002.29,-896.51 2002.29,-2002.42 0,-1105.89 -896.54,-2002.39 -2002.29,-2002.39z"/>
 </g>
</svg>
